<?xml version="1.0" encoding="UTF-8"?>
<!-- Generated by Pixelmator Pro 3.7.1 -->
<svg width="500" height="500" viewBox="0 0 500 500" xmlns="http://www.w3.org/2000/svg">
    <path id="Path" fill="#ffd13b" stroke="none" d="M 100 120 C 200 93.333333 300 93.333333 400 120 C 420 300 350 400 250 460 C 150 400 80 300 100 120 Z"/>
    <clipPath id="clipPath1">
        <path d="M 100 120 C 200 93.333333 300.000005 93.333333 400.000015 120 C 420.000015 300 350 400 250 460 C 150 400 80 300 100 120 Z"/>
    </clipPath>
    <path id="path1" fill="#f39c12" stroke="none" clip-path="url(#clipPath1)" d="M 250 50 L 500 50 L 500 500 L 250 500 Z"/>
    <path id="path2" fill="none" stroke="#2c3e50" stroke-width="16" stroke-linejoin="round" d="M 100 120 C 200 93.333333 300 93.333333 400 120 C 420 300 350 400 250 460 C 150 400 80 300 100 120 Z"/>
    <path id="path3" fill="none" stroke="#ffffff" stroke-width="8" stroke-linecap="round" opacity="0.5" d="M 115 134 C 205 107.333333 295 107.333333 385 134"/>
    <path id="path4" fill="#d2dae2" stroke="none" d="M 140 155 C 213.333333 131.666667 286.666667 131.666667 360 155 C 375 290 320 380 250 420 C 180 380 125 290 140 155 Z"/>
    <clipPath id="clipPath2">
        <path d="M 140 155 C 213.333333 131.666667 286.666667 131.666667 360 155 C 375 290 320 380 250 420 C 180 380 125 290 140 155 Z"/>
    </clipPath>
    <path id="path5" fill="#808e9b" stroke="none" clip-path="url(#clipPath2)" d="M 250 100 L 450 100 L 450 450 L 250 450 Z"/>
    <path id="path6" fill="none" stroke="#2c3e50" stroke-width="12" stroke-linejoin="round" d="M 140 155 C 213.333333 131.666667 286.666667 131.666667 360 155 C 375 290 320 380 250 420 C 180 380 125 290 140 155 Z"/>
    <path id="path7" fill="none" stroke="#ffffff" stroke-width="6" stroke-linecap="round" opacity="0.6" d="M 160 167 C 220 145.666667 280 145.666667 340 167"/>
    <path id="path8" fill="#000000" stroke="#2c3e50" stroke-width="8" stroke-linecap="round" d="M 148 244 L 198 274"/>
    <path id="path9" fill="#000000" stroke="#ffffff" stroke-width="3" stroke-linecap="round" opacity="0.4" d="M 148 248 L 198 278"/>
    <path id="path10" fill="#000000" stroke="#2c3e50" stroke-width="8" stroke-linecap="round" d="M 325 333 L 275 353"/>
    <path id="path11" fill="#000000" stroke="#ffffff" stroke-width="3" stroke-linecap="round" opacity="0.4" d="M 325 337 L 275 357"/>
    <g id="sword-emblem">
        <path id="path12" fill="#ecf0f1" stroke="none" visibility="hidden" d="M 230 220 L 270 220 L 250 370 Z"/>
        <path id="path13" fill="#bdc3c7" stroke="none" visibility="hidden" d="M 250 220 L 270 220 L 250 370 Z"/>
        <path id="path14" fill="#8e44ad" stroke="none" visibility="hidden" d="M 240 160 L 260 160 L 260 200 L 240 200 Z"/>
        <path id="path15" fill="#732d91" stroke="none" visibility="hidden" d="M 250 160 L 260 160 L 260 200 L 250 200 Z"/>
        <path id="path16" fill="#ffd13b" stroke="none" visibility="hidden" d="M 202 200 L 298 200 C 304.627411 200 310 205.372589 310 212 L 310 212 C 310 218.627411 304.627411 224 298 224 L 202 224 C 195.372589 224 190 218.627411 190 212 L 190 212 C 190 205.372589 195.372589 200 202 200 Z"/>
        <path id="path17" fill="#f39c12" stroke="none" visibility="hidden" d="M 250 200 L 298 200 C 304.627411 200 310 205.372589 310 212 C 310 218.627411 304.627411 224 298 224 L 250 224 L 250 200"/>
        <path id="path18" fill="#ffd13b" stroke="none" visibility="hidden" d="M 266 150 C 266 158.836548 258.836548 166 250 166 C 241.163437 166 234 158.836548 234 150 C 234 141.163452 241.163437 134 250 134 C 258.836548 134 266 141.163452 266 150 Z"/>
        <path id="path19" fill="#f39c12" stroke="none" visibility="hidden" d="M 250 134 C 258.836548 134 266 141.163452 266 150 C 266 158.836548 258.836548 166 250 166 L 250 134"/>
        <path id="path20" fill="none" stroke="#2c3e50" stroke-width="8" stroke-linejoin="round" visibility="hidden" d="M 230 220 L 270 220 L 250 370 Z"/>
        <path id="path21" fill="#000000" stroke="#2c3e50" stroke-width="4" stroke-linecap="round" visibility="hidden" d="M 250 220 L 250 370"/>
        <path id="path22" fill="none" stroke="#2c3e50" stroke-width="8" stroke-linejoin="round" visibility="hidden" d="M 240 160 L 260 160 L 260 200 L 240 200 Z"/>
        <path id="path23" fill="none" stroke="#2c3e50" stroke-width="8" stroke-linejoin="round" visibility="hidden" d="M 202 200 L 298 200 C 304.627411 200 310 205.372589 310 212 L 310 212 C 310 218.627411 304.627411 224 298 224 L 202 224 C 195.372589 224 190 218.627411 190 212 L 190 212 C 190 205.372589 195.372589 200 202 200 Z"/>
        <path id="path24" fill="none" stroke="#2c3e50" stroke-width="8" visibility="hidden" d="M 266 150 C 266 158.836548 258.836548 166 250 166 C 241.163437 166 234 158.836548 234 150 C 234 141.163452 241.163437 134 250 134 C 258.836548 134 266 141.163452 266 150 Z"/>
    </g>
    <g id="Group">
        <g id="g1">
            <path id="path25" fill="#95a5a6" stroke="#2c3e50" stroke-width="4" d="M 257 100 C 257 103.865997 253.865997 107 250 107 C 246.134003 107 243 103.865997 243 100 C 243 96.134003 246.134003 93 250 93 C 253.865997 93 257 96.134003 257 100 Z"/>
            <path id="path26" fill="#ffffff" stroke="none" opacity="0.8" d="M 250 98 C 250 99.104584 249.104568 100 248 100 C 246.895432 100 246 99.104584 246 98 C 246 96.895416 246.895432 96 248 96 C 249.104568 96 250 96.895416 250 98 Z"/>
        </g>
    </g>
    <g id="g2">
        <g id="g3">
            <path id="path27" fill="#95a5a6" stroke="#2c3e50" stroke-width="4" d="M 127 137 C 127 140.865997 123.86599 144 120 144 C 116.13401 144 113 140.865997 113 137 C 113 133.134003 116.13401 130 120 130 C 123.86599 130 127 133.134003 127 137 Z"/>
            <path id="path28" fill="#ffffff" stroke="none" opacity="0.8" d="M 120 135 C 120 136.104584 119.104568 137 118 137 C 116.895432 137 116 136.104584 116 135 C 116 133.895416 116.895432 133 118 133 C 119.104568 133 120 133.895416 120 135 Z"/>
        </g>
    </g>
    <g id="g4">
        <g id="g5">
            <path id="path29" fill="#95a5a6" stroke="#2c3e50" stroke-width="4" d="M 387 137 C 387 140.865997 383.865997 144 380 144 C 376.134003 144 373 140.865997 373 137 C 373 133.134003 376.134003 130 380 130 C 383.865997 130 387 133.134003 387 137 Z"/>
            <path id="path30" fill="#ffffff" stroke="none" opacity="0.8" d="M 380 135 C 380 136.104584 379.104584 137 378 137 C 376.895416 137 376 136.104584 376 135 C 376 133.895416 376.895416 133 378 133 C 379.104584 133 380 133.895416 380 135 Z"/>
        </g>
    </g>
    <g id="g6">
        <g id="g7">
            <path id="path31" fill="#95a5a6" stroke="#2c3e50" stroke-width="4" d="M 117 250 C 117 253.865997 113.86599 257 110 257 C 106.13401 257 103 253.865997 103 250 C 103 246.134003 106.13401 243 110 243 C 113.86599 243 117 246.134003 117 250 Z"/>
            <path id="path32" fill="#ffffff" stroke="none" opacity="0.8" d="M 110 248 C 110 249.104568 109.104568 250 108 250 C 106.895432 250 106 249.104568 106 248 C 106 246.895432 106.895432 246 108 246 C 109.104568 246 110 246.895432 110 248 Z"/>
        </g>
    </g>
    <g id="g8">
        <g id="g9">
            <path id="path33" fill="#95a5a6" stroke="#2c3e50" stroke-width="4" d="M 397 250 C 397 253.865997 393.865997 257 390 257 C 386.134003 257 383 253.865997 383 250 C 383 246.134003 386.134003 243 390 243 C 393.865997 243 397 246.134003 397 250 Z"/>
            <path id="path34" fill="#ffffff" stroke="none" opacity="0.8" d="M 390 248 C 390 249.104568 389.104584 250 388 250 C 386.895416 250 386 249.104568 386 248 C 386 246.895432 386.895416 246 388 246 C 389.104584 246 390 246.895432 390 248 Z"/>
        </g>
    </g>
    <g id="g10">
        <g id="g11">
            <path id="path35" fill="#95a5a6" stroke="#2c3e50" stroke-width="4" d="M 162 370 C 162 373.865997 158.865997 377 155 377 C 151.134003 377 148 373.865997 148 370 C 148 366.134003 151.134003 363 155 363 C 158.865997 363 162 366.134003 162 370 Z"/>
            <path id="path36" fill="#ffffff" stroke="none" opacity="0.8" d="M 155 368 C 155 369.104553 154.104568 370 153 370 C 151.895432 370 151 369.104553 151 368 C 151 366.895447 151.895432 366 153 366 C 154.104568 366 155 366.895447 155 368 Z"/>
        </g>
    </g>
    <g id="g12">
        <g id="g13">
            <path id="path37" fill="#95a5a6" stroke="#2c3e50" stroke-width="4" d="M 352 370 C 352 373.865997 348.865997 377 345 377 C 341.134003 377 338 373.865997 338 370 C 338 366.134003 341.134003 363 345 363 C 348.865997 363 352 366.134003 352 370 Z"/>
            <path id="path38" fill="#ffffff" stroke="none" opacity="0.8" d="M 345 368 C 345 369.104553 344.104584 370 343 370 C 341.895416 370 341 369.104553 341 368 C 341 366.895447 341.895416 366 343 366 C 344.104584 366 345 366.895447 345 368 Z"/>
        </g>
    </g>
    <g id="g14">
        <g id="g15">
            <path id="path39" fill="#95a5a6" stroke="#2c3e50" stroke-width="4" d="M 257 440 C 257 443.865997 253.865997 447 250 447 C 246.134003 447 243 443.865997 243 440 C 243 436.134003 246.134003 433 250 433 C 253.865997 433 257 436.134003 257 440 Z"/>
            <path id="path40" fill="#ffffff" stroke="none" opacity="0.8" d="M 250 438 C 250 439.104553 249.104568 440 248 440 C 246.895432 440 246 439.104553 246 438 C 246 436.895447 246.895432 436 248 436 C 249.104568 436 250 436.895447 250 438 Z"/>
        </g>
    </g>
    <path id="path41" fill="#000000" stroke="#2c3e50" stroke-width="10" stroke-linecap="round" d="M 312 217 L 352 197"/>
    <path id="path42" fill="#000000" stroke="#ffffff" stroke-width="3" stroke-linecap="round" opacity="0.6" d="M 312 221 L 352 201"/>
</svg>
