<?xml version="1.0" encoding="UTF-8"?>
<!-- Generated by Pixelmator Pro 3.7.1 -->
<svg width="300" height="300" viewBox="0 0 300 300" xmlns="http://www.w3.org/2000/svg">
    <g id="Group">
        <g id="g1">
            <g id="g2">
                <g id="g3">
                    <g id="g4">
                        <path id="Path" fill="#8b0000" stroke="#1a1a1a" stroke-width="8.373839" stroke-linejoin="round" d="M 17.708351 105.30394 C 61.552139 121.430481 108.601295 190.959412 124.570656 278.432251 C 61.981567 217.875305 25.292345 142.365082 17.708351 105.30394 Z"/>
                        <path id="path1" fill="#e53935" stroke="none" d="M 26.680321 120.843857 C 57.173504 137.771744 93.178726 192.957001 111.572021 258.310516 C 69.350861 206.71402 39.561615 147.939957 26.680321 120.843857 Z"/>
                        <path id="path2" fill="#ffb300" stroke="none" opacity="0.9" d="M 37.724281 135.187515 C 55.902866 152.318588 81.900108 192.562088 98.57341 238.188751 C 70.504181 199.141541 47.61491 157.103638 37.724281 135.187515 Z"/>
                    </g>
                </g>
            </g>
            <g id="g5">
                <g id="g6">
                    <g id="g7">
                        <path id="path3" fill="#8b0000" stroke="#1a1a1a" stroke-width="10.836733" stroke-linejoin="round" d="M 75.820892 23 C 132.559921 43.869629 193.447067 133.848221 214.113281 247.048401 C 133.115662 168.680573 85.63549 70.961472 75.820892 23 Z"/>
                        <path id="path4" fill="#e53935" stroke="none" d="M 87.431679 43.110474 C 126.893448 65.017136 173.488434 136.433365 197.29155 221.008484 C 142.652374 154.236557 104.101585 78.176041 87.431679 43.110474 Z"/>
                        <path id="path5" fill="#ffb300" stroke="none" opacity="0.9" d="M 101.723862 61.672836 C 125.249084 83.842484 158.892578 135.922287 180.469788 194.968597 C 144.144913 144.436874 114.523514 90.034897 101.723862 61.672836 Z"/>
                    </g>
                </g>
            </g>
            <g id="g8">
                <g id="g9">
                    <g id="g10">
                        <path id="path6" fill="#8b0000" stroke="#1a1a1a" stroke-width="7.388681" stroke-linejoin="round" d="M 186.709747 32.107269 C 225.395432 46.336563 266.909393 107.685623 281 184.867554 C 225.774338 131.434952 193.401505 64.808273 186.709747 32.107269 Z"/>
                        <path id="path7" fill="#e53935" stroke="none" d="M 194.62619 45.81897 C 221.531937 60.755325 253.301254 109.448227 269.53064 167.113068 C 232.276672 121.586777 205.992035 69.727295 194.62619 45.81897 Z"/>
                        <path id="path8" fill="#ffb300" stroke="none" opacity="0.9" d="M 204.370834 58.475113 C 220.410782 73.59079 243.349518 109.099747 258.061249 149.358582 C 233.294281 114.905151 213.097885 77.812897 204.370834 58.475113 Z"/>
                    </g>
                </g>
            </g>
        </g>
    </g>
</svg>
